<svg width="222" height="36" viewBox="0 0 222 36" fill="none" xmlns="http://www.w3.org/2000/svg">
<path fill-rule="evenodd" clip-rule="evenodd" d="M5.09695 6.98998C7.04261 3.67264 10.6973 0.749878 16.481 0.749878C23.2003 0.749878 26.8577 3.45901 28.7895 6.61738C30.6836 9.71412 30.85 13.1297 30.85 14.485C30.85 16.3499 30.1925 18.2701 29.4579 19.8508C28.7177 21.4437 27.8666 22.7597 27.4169 23.4289C27.3147 23.5809 27.2113 23.7229 27.1249 23.8416C27.0927 23.8858 27.0629 23.9268 27.0364 23.9638C26.9311 24.1107 26.8591 24.2206 26.803 24.3319C26.7039 24.5286 26.6188 24.7991 26.6188 25.3715C26.6188 25.3872 26.6183 25.403 26.6173 25.4187L26.4092 28.7219C26.3974 28.9095 26.3854 29.1016 26.3596 29.2662C26.3314 29.4457 26.2776 29.6649 26.1377 29.874C25.9932 30.0899 25.8039 30.2258 25.6236 30.3218C25.4551 30.4115 25.2573 30.485 25.0593 30.5545C21.0978 31.9441 14.096 34.503 12.933 34.9837C12.3248 35.2351 11.707 35.3495 11.1639 35.1436C10.5654 34.9167 10.2899 34.3979 10.1924 33.9141L10.1913 33.9087L9.64792 31.1057H6.69643C6.67288 31.1057 6.64934 31.1046 6.62589 31.1024C5.71813 31.0166 5.03282 30.5968 4.54789 29.9935C4.08119 29.4128 3.81975 28.6892 3.66652 27.9918C3.40606 26.8063 3.42158 25.4928 3.43118 24.6802C3.43277 24.5464 3.43419 24.4261 3.43419 24.3222C3.43419 23.7033 3.40005 23.3205 3.34039 23.079C3.3121 22.9645 3.28354 22.9058 3.26673 22.8785C3.25351 22.857 3.2462 22.8522 3.24192 22.8494C3.09175 22.7501 2.60187 22.4075 1.75316 21.776C1.15133 21.3283 0.888484 20.7528 0.853972 20.1978C0.821733 19.6794 0.989783 19.2236 1.16961 18.9382C1.17658 18.9272 1.18384 18.9163 1.19138 18.9056L3.70841 15.3387C3.32573 14.4253 3.24228 13.1994 3.39689 11.9232C3.58344 10.3834 4.13092 8.63705 5.09695 6.98998ZM4.886 12.1036C4.71976 13.4758 4.90299 14.4999 5.21813 15.0076C5.37692 15.2635 5.36729 15.5895 5.19367 15.8356L2.43163 19.7497C2.39191 19.8191 2.342 19.9587 2.35108 20.1047C2.35844 20.223 2.40411 20.3907 2.64852 20.5726C3.49226 21.2003 3.95472 21.5225 4.069 21.598C4.47559 21.8669 4.68609 22.272 4.7966 22.7192C4.90221 23.1467 4.93419 23.6819 4.93419 24.3222C4.93419 24.4483 4.93281 24.5855 4.93134 24.7316C4.92302 25.5582 4.91184 26.6697 5.13158 27.6699C5.25933 28.2513 5.4524 28.7245 5.71706 29.0538C5.95791 29.3534 6.27179 29.5544 6.73456 29.6057H10.2665C10.6257 29.6057 10.9344 29.8604 11.0028 30.213L11.6628 33.6177C11.663 33.6185 11.6631 33.6192 11.6633 33.62C11.6779 33.6917 11.6956 33.7286 11.7043 33.7435C11.7458 33.7529 11.9308 33.7748 12.36 33.5975C13.5678 33.0982 20.6099 30.5256 24.5628 29.139C24.7227 29.0829 24.8189 29.0452 24.8802 29.0168C24.8924 28.9307 24.9006 28.811 24.9137 28.6034L25.1189 25.3473C25.1213 24.621 25.2346 24.1108 25.4635 23.6567C25.5727 23.4401 25.699 23.2549 25.8169 23.0903C25.8561 23.0356 25.8932 22.9846 25.9296 22.9347C26.0099 22.8244 26.0864 22.7194 26.1719 22.5922C26.6037 21.9498 27.4054 20.7082 28.0976 19.2187C28.7954 17.7171 29.35 16.0303 29.35 14.485C29.35 13.2171 29.1858 10.1401 27.5099 7.40005C25.8716 4.72168 22.7196 2.24988 16.481 2.24988C11.29 2.24988 8.09928 4.83595 6.39082 7.74885C5.52979 9.2169 5.04804 10.7661 4.886 12.1036Z" fill="white"/>
<ellipse cx="17.4065" cy="5.4348" rx="1.05779" ry="1.0493" fill="white"/>
<ellipse cx="25.8689" cy="12.7799" rx="1.05779" ry="1.0493" fill="white"/>
<ellipse cx="17.4065" cy="20.3873" rx="1.05779" ry="1.0493" fill="white"/>
<path d="M17.7756 8.67529L17.0054 14.0239L23.5527 13.2598L18.5459 12.4958L17.7756 8.67529Z" fill="white"/>
<path d="M42.8242 22.2019C44.8262 22.2019 46.0802 21.1459 46.0802 19.7599C46.0802 17.9559 44.9362 17.2079 42.0322 16.4599C38.3362 15.5139 37.3022 13.8419 37.3022 11.9939C37.3022 9.68394 39.1062 8.03394 42.1422 8.03394C43.9902 8.03394 45.7062 8.71594 47.0261 9.94794C47.3122 10.2339 47.2682 10.5639 46.9602 10.8279L46.4981 11.2019C46.2122 11.4439 45.9262 11.4439 45.6402 11.1799C44.6062 10.2779 43.4842 9.79394 42.1862 9.79394C40.2282 9.79394 39.2822 10.6959 39.2822 11.9939C39.2822 13.1159 40.2502 14.1279 42.5602 14.7439C46.3662 15.7559 48.0602 16.9219 48.0602 19.6499C48.0602 22.1799 46.1021 23.9619 42.8022 23.9619C40.5362 23.9619 38.6222 23.2139 37.0602 21.7619C36.7522 21.4759 36.7962 21.1459 37.1042 20.8819L37.6322 20.4419C37.9402 20.1779 38.2262 20.2219 38.5342 20.5299C39.8102 21.6739 41.2182 22.2019 42.8242 22.2019Z" fill="white"/>
<path d="M50.691 8.25394C50.691 7.85794 50.911 7.63794 51.307 7.63794H51.923C52.319 7.63794 52.539 7.85794 52.539 8.25394V23.0819C52.539 23.4779 52.319 23.6979 51.923 23.6979H51.307C50.911 23.6979 50.691 23.4779 50.691 23.0819V8.25394Z" fill="white"/>
<path d="M60.9073 23.9619C57.4533 23.9619 55.0773 21.4319 55.0773 17.9999C55.0773 14.5679 57.2333 12.0379 60.4893 12.0379C63.6573 12.0379 65.8353 14.5239 65.8353 18.0659V18.1539C65.8353 18.5499 65.6153 18.7479 65.2193 18.7479H57.0133C57.2553 20.9699 58.6633 22.3339 60.7973 22.3339C61.8973 22.3339 62.7113 21.9379 63.5253 21.1899C63.7893 20.9259 64.0753 20.8819 64.3833 21.1019L64.7793 21.3879C65.1093 21.6299 65.1533 21.9379 64.8893 22.2459C63.8553 23.3239 62.4913 23.9619 60.9073 23.9619ZM63.9213 17.1639C63.7893 15.0299 62.2933 13.6659 60.4893 13.6659C58.5753 13.6659 57.2773 15.0079 57.0133 17.1639H63.9213Z" fill="white"/>
<path d="M73.4327 23.9619C69.9787 23.9619 67.6027 21.4319 67.6027 17.9999C67.6027 14.5679 69.7587 12.0379 73.0147 12.0379C76.1827 12.0379 78.3607 14.5239 78.3607 18.0659V18.1539C78.3607 18.5499 78.1407 18.7479 77.7447 18.7479H69.5387C69.7807 20.9699 71.1887 22.3339 73.3227 22.3339C74.4227 22.3339 75.2367 21.9379 76.0507 21.1899C76.3147 20.9259 76.6007 20.8819 76.9087 21.1019L77.3047 21.3879C77.6347 21.6299 77.6787 21.9379 77.4147 22.2459C76.3807 23.3239 75.0167 23.9619 73.4327 23.9619ZM76.4467 17.1639C76.3147 15.0299 74.8187 13.6659 73.0147 13.6659C71.1007 13.6659 69.8027 15.0079 69.5387 17.1639H76.4467Z" fill="white"/>
<path d="M82.6361 27.7459C82.6361 28.1419 82.4161 28.3619 82.0201 28.3619H81.4041C81.0081 28.3619 80.7881 28.1419 80.7881 27.7459V12.9179C80.7881 12.5219 81.0081 12.3019 81.4041 12.3019H82.0201C82.4161 12.3019 82.6361 12.5219 82.6361 12.9179V13.4239C83.5161 12.5879 84.7921 12.0379 86.1561 12.0379C89.4341 12.0379 91.1501 14.4579 91.1501 17.9999C91.1501 21.5419 89.4341 23.9619 86.1561 23.9619C84.7921 23.9619 83.5161 23.4119 82.6361 22.5979V27.7459ZM89.2581 17.9999C89.2581 15.3599 88.2461 13.6659 85.8701 13.6659C84.7481 13.6659 83.4281 14.1939 82.6361 15.0959V20.9259C83.4281 21.8059 84.7481 22.3339 85.8701 22.3339C88.2461 22.3339 89.2581 20.6399 89.2581 17.9999Z" fill="white"/>
<path d="M100.744 23.5785H97.15V6.70332H100.744V23.5785Z" fill="white"/>
<path d="M113.841 23.5785H110.454V16.005C110.454 14.0735 109.885 13.5398 108.282 13.5398C106.524 13.5398 105.671 14.5055 105.671 16.4116V23.5785H102.309V11.0746H105.515V12.9044C106.291 11.5066 107.584 10.7442 109.627 10.7442C112.057 10.7442 113.841 12.1928 113.841 14.9122V23.5785Z" fill="white"/>
<path d="M122.786 18.5972V15.3442H125.915V18.9022C125.915 21.5453 124.363 23.9088 120.769 23.9088C117.046 23.9088 115.572 21.5707 115.572 18.8768V7.69448H118.882V11.0746H125.915V13.4127H118.882V18.5464C118.882 20.1221 119.45 21.037 120.821 21.037C122.165 21.037 122.786 20.1475 122.786 18.5972Z" fill="white"/>
<path d="M130.727 16.1066H135.925C135.873 14.2514 134.632 13.3619 133.313 13.3619C131.968 13.3619 130.857 14.3785 130.727 16.1066ZM139.389 18.1906H130.624C130.727 20.0713 131.813 21.2912 133.468 21.2912C134.554 21.2912 135.511 20.7575 135.744 19.8934H139.208C138.433 22.4602 136.338 23.9088 133.623 23.9088C129.383 23.9088 127.263 21.6215 127.263 17.0978C127.263 13.2348 129.512 10.7442 133.416 10.7442C137.321 10.7442 139.389 13.2348 139.389 18.1906Z" fill="white"/>
<path d="M144.171 23.5785H140.81V6.5H144.171V23.5785Z" fill="white"/>
<path d="M149.202 23.5785H145.841V6.5H149.202V23.5785Z" fill="white"/>
<path d="M154.311 23.5785H150.949V11.0746H154.311V23.5785ZM154.311 9.57514H150.949V6.5H154.311V9.57514Z" fill="white"/>
<path d="M162.207 21.0878C163.836 21.0878 165.077 19.7409 165.077 17.6315C165.077 14.9122 164.12 13.616 162.207 13.616C160.319 13.616 159.337 14.8613 159.337 17.4282C159.337 19.6646 160.552 21.0878 162.207 21.0878ZM164.974 23.9597V21.9011C164.508 23.0193 163.138 23.6801 161.483 23.6801C157.294 23.6801 155.846 20.5287 155.846 17.2503C155.846 13.3619 158.328 10.7442 161.405 10.7442C163.009 10.7442 164.172 11.3541 164.974 12.6249V11.0746H168.335V23.7055C168.335 27.4669 165.543 29.5 162 29.5C158.458 29.5 155.846 27.4923 155.846 24.2646H158.975C158.975 25.7641 160.087 26.6536 161.767 26.6536C163.552 26.6536 164.974 25.6116 164.974 23.9597Z" fill="white"/>
<path d="M173.255 16.1066H178.452C178.401 14.2514 177.159 13.3619 175.841 13.3619C174.496 13.3619 173.384 14.3785 173.255 16.1066ZM181.917 18.1906H173.152C173.255 20.0713 174.341 21.2912 175.996 21.2912C177.082 21.2912 178.039 20.7575 178.271 19.8934H181.736C180.96 22.4602 178.866 23.9088 176.151 23.9088C171.91 23.9088 169.79 21.6215 169.79 17.0978C169.79 13.2348 172.04 10.7442 175.944 10.7442C179.849 10.7442 181.917 13.2348 181.917 18.1906Z" fill="white"/>
<path d="M194.87 23.5785H191.482V16.005C191.482 14.0735 190.914 13.5398 189.31 13.5398C187.552 13.5398 186.699 14.5055 186.699 16.4116V23.5785H183.337V11.0746H186.544V12.9044C187.319 11.5066 188.612 10.7442 190.655 10.7442C193.085 10.7442 194.87 12.1928 194.87 14.9122V23.5785Z" fill="white"/>
<path d="M204.668 19.0547H208.055C207.693 21.9519 205.288 23.9088 202.211 23.9088C198.746 23.9088 196.368 21.647 196.368 17.174C196.368 12.7011 198.746 10.7442 202.315 10.7442C205.624 10.7442 207.874 12.5994 208.081 15.5475H204.693C204.512 14.2514 203.556 13.489 202.289 13.489C200.867 13.489 199.703 14.3785 199.703 17.0978C199.703 19.8171 200.867 21.1387 202.185 21.1387C203.504 21.1387 204.538 20.4017 204.668 19.0547Z" fill="white"/>
<path d="M212.488 16.1066H217.685C217.633 14.2514 216.392 13.3619 215.074 13.3619C213.729 13.3619 212.617 14.3785 212.488 16.1066ZM221.15 18.1906H212.385C212.488 20.0713 213.574 21.2912 215.229 21.2912C216.315 21.2912 217.271 20.7575 217.504 19.8934H220.969C220.193 22.4602 218.099 23.9088 215.384 23.9088C211.143 23.9088 209.023 21.6215 209.023 17.0978C209.023 13.2348 211.273 10.7442 215.177 10.7442C219.081 10.7442 221.15 13.2348 221.15 18.1906Z" fill="white"/>
</svg>
