<svg width="800" height="927" viewBox="0 0 800 927" fill="none" xmlns="http://www.w3.org/2000/svg">
<path fill-rule="evenodd" clip-rule="evenodd" d="M273.468 923.433C276.907 925.293 281.024 926.196 285.76 926.196C292.696 926.196 300.928 924.222 310.401 920.275C343.668 906.517 541.245 834.343 651.367 795.719C673.977 787.768 674.146 785.287 675.612 761.661L681.42 669.696C681.42 639.642 688.694 629.606 699.746 614.438C702.114 611.167 704.595 607.728 707.245 603.837C729.461 570.795 748.181 537.978 762.898 506.346C787.539 453.343 800 405.641 800 364.535C800 319.596 792.895 232.536 745.249 154.667C717.113 108.599 678.601 72.2304 630.842 46.5748C573.328 15.6753 501.605 0 417.703 0C344.401 0 279.388 17.536 224.525 52.0442C200.505 67.1557 178.401 85.5939 158.948 106.851C141.13 126.305 125.398 148.182 112.26 171.808C90.1572 211.56 75.4405 256.5 70.8732 298.451C66.6442 336.906 71.2679 370.343 83.4473 390.304L5.80381 500.313C-0.68057 510.631 -6.71387 534.821 17.081 552.526C40.5939 570.006 54.0702 579.422 57.9044 581.959C68.6178 589.064 72.452 604.345 72.452 640.319C72.452 643.533 72.452 647.198 72.3956 651.089C72.1137 676.18 71.719 714.015 80.4024 746.606C85.1952 764.537 92.2999 778.916 101.491 789.234C112.317 801.47 126.47 808.462 143.442 810.041H243.02L261.514 905.164C263.318 914.016 267.322 920.162 273.468 923.433ZM273.975 922.418C268.111 919.317 264.277 913.452 262.585 904.938L244.091 809.364C244.034 809.082 243.809 808.913 243.527 808.913H143.498C126.864 807.334 112.994 800.455 102.337 788.501C93.2584 778.295 86.2102 764.086 81.4738 746.324C72.8467 713.846 73.2414 676.068 73.5233 651.089C73.5233 649.05 73.5388 647.074 73.5535 645.192C73.5669 643.482 73.5797 641.849 73.5797 640.319C73.5797 603.893 69.6327 588.387 58.5247 581.001C54.6904 578.464 41.2142 569.103 17.7576 551.624C-5.3606 534.426 0.447149 510.913 6.76238 500.933L84.6314 390.642C84.7441 390.473 84.7441 390.191 84.6314 390.022C72.3956 370.343 67.772 337.019 72.0009 298.564C76.5682 256.782 91.2285 211.955 113.219 172.372C148.799 108.43 235.689 1.12772 417.703 1.12772C501.436 1.12772 572.99 16.7466 630.335 47.5897C677.924 73.1326 716.267 109.389 744.347 155.287C791.824 232.987 798.929 319.765 798.929 364.592C798.929 405.471 786.524 453.061 761.939 505.895C747.279 537.527 728.559 570.288 706.399 603.273C704.106 606.639 701.94 609.626 699.864 612.488C699.541 612.934 699.219 613.377 698.9 613.817C688.13 628.591 680.349 639.304 680.349 669.696L674.541 761.605L674.539 761.643C673.019 785.064 672.894 786.983 651.028 794.647C540.906 833.272 343.33 905.446 310.006 919.204C294.331 925.745 282.208 926.816 273.975 922.418ZM291.06 904.767C286.55 904.767 282.603 903.865 279.332 902.117C273.468 898.96 269.634 893.095 267.942 884.694L250.35 793.969H155.339C125.342 791.15 105.156 770.794 95.1756 733.467C86.8869 702.398 87.2816 666.255 87.5635 642.347C87.6199 638.626 87.6199 635.187 87.6199 632.086V632.085C87.6199 597.802 84.0112 583.255 73.7489 576.432C70.0838 574.007 57.2278 564.985 34.8426 548.352C12.1191 531.436 17.8704 508.374 24.0729 498.506L98.1077 393.685C86.4922 374.683 82.094 342.768 86.0975 306.061C90.4956 266.027 104.479 223.174 125.568 185.282C138.085 162.728 153.084 141.922 170.113 123.371C188.664 103.128 209.752 85.5357 232.645 71.1009C284.971 38.1715 346.995 21.4813 416.914 21.4813C496.926 21.4813 565.322 36.4236 620.185 65.9134C665.745 90.3849 702.452 125.062 729.292 168.987C774.739 243.247 781.505 326.304 781.505 369.157C781.505 408.345 769.608 453.849 746.095 504.371C732.055 534.537 714.237 565.831 693.036 597.351C690.499 601.073 688.187 604.343 685.875 607.444L685.872 607.448C675.33 621.937 668.395 631.467 668.395 660.165L662.869 747.845C661.46 770.4 661.291 772.768 639.751 780.323C534.76 817.143 346.319 885.991 314.573 899.129C305.552 902.906 297.658 904.767 291.06 904.767ZM250.744 792.841C251.026 792.841 251.252 793.01 251.308 793.292L268.957 884.468C270.592 892.531 274.257 898.17 279.783 901.102C287.621 905.275 299.18 904.26 314.122 898.057C345.868 884.919 534.309 816.072 639.356 779.252C660.218 771.922 660.332 770.118 661.741 747.792L661.742 747.789L667.268 660.109C667.268 631.185 674.68 620.962 684.91 606.853L684.973 606.767C687.228 603.666 689.596 600.396 692.077 596.674C713.222 565.211 731.04 533.973 745.08 503.807C768.48 453.398 780.378 408.063 780.378 369.044C780.378 326.304 773.611 243.529 728.333 169.494C701.55 125.739 665.012 91.1743 619.621 66.8156C564.927 37.4385 496.7 22.4963 416.857 22.4963C243.245 22.4963 160.414 124.78 126.526 185.79C105.551 223.512 91.5669 266.253 87.2252 306.118C83.2218 342.768 87.6199 374.57 99.2354 393.347C99.3482 393.516 99.3482 393.798 99.2354 393.967L24.9751 499.183C18.9982 508.712 13.416 531.098 35.4629 547.506C57.8481 564.14 70.6477 573.105 74.3128 575.53C84.9133 582.578 88.6912 597.351 88.6912 632.085C88.6912 633.531 88.6785 635.079 88.6651 636.704C88.6504 638.501 88.6348 640.393 88.6348 642.347C88.3529 666.198 87.9582 702.229 96.2469 733.128C100.758 750.101 107.468 763.633 116.151 773.332C126.301 784.722 139.495 791.319 155.396 792.785L250.744 792.841ZM285.196 880.804C288.297 882.496 292.075 883.342 296.361 883.342C302.619 883.342 310.119 881.537 318.802 877.985C349.025 865.524 528.276 800.003 628.192 764.987C648.743 757.837 648.885 755.578 650.233 734.182L650.239 734.088L655.483 650.637C655.483 623.346 662.08 614.268 672.117 600.51C674.316 597.521 676.571 594.42 678.939 590.868C699.069 560.87 716.041 531.099 729.405 502.398C751.734 454.301 763.067 410.996 763.067 373.725C763.067 332.902 756.639 253.962 713.391 183.254C687.792 141.415 652.833 108.429 609.528 85.1421C557.258 57.0619 492.189 42.8526 416.068 42.8526C349.533 42.8526 290.553 58.7535 240.764 90.1041C218.886 103.806 198.869 120.552 181.22 139.836C165.038 157.485 150.828 177.333 138.875 198.76C118.801 234.79 105.494 275.614 101.322 313.674C97.4874 348.577 101.66 378.913 112.712 397.013L42.2855 496.816C36.365 506.232 30.8955 528.223 52.4914 544.293C73.8053 560.137 86.041 568.708 89.5369 571.02C99.2917 577.448 102.731 591.319 102.731 623.91V623.911C102.731 626.843 102.731 630.169 102.675 633.665L102.671 634.103C102.445 656.829 102.105 690.973 109.949 720.33C119.421 755.909 138.705 775.25 167.237 777.956H257.567L274.314 864.227C275.949 872.234 279.614 877.816 285.196 880.804ZM258.582 777.28C258.526 776.998 258.3 776.829 258.018 776.829L167.293 776.885C152.182 775.475 139.608 769.216 129.966 758.39C121.733 749.087 115.362 736.231 111.076 720.104C103.29 690.862 103.629 656.833 103.855 634.163L103.859 633.721C103.859 631.897 103.874 630.119 103.889 628.418L103.889 628.417V628.416V628.416C103.902 626.859 103.915 625.367 103.915 623.966C103.915 590.924 100.307 576.828 90.2136 570.118C86.7176 567.806 74.5383 559.292 53.2244 543.447C32.2488 527.828 37.5491 506.571 43.2441 497.493L113.952 397.351C114.065 397.182 114.065 396.9 113.952 396.731C102.844 378.913 98.6715 348.634 102.506 313.787C106.622 275.896 119.929 235.242 139.89 199.324C172.142 141.303 250.914 43.9804 416.068 43.9804C492.02 43.9804 556.92 58.1896 608.964 86.1007C652.1 109.332 686.89 142.205 712.376 183.818C755.455 254.244 761.883 333.015 761.883 373.669C761.883 410.827 750.606 453.963 728.333 501.891C715.026 530.591 698.054 560.307 677.924 590.247C676.08 593.015 674.303 595.474 672.595 597.838C672.273 598.285 671.952 598.729 671.634 599.17C671.475 599.391 671.316 599.612 671.158 599.833C661.347 613.253 654.299 622.951 654.299 650.58L649.055 733.975C647.758 755.233 647.645 756.981 627.797 763.916C527.881 798.988 348.574 864.452 318.351 876.97C304.142 882.834 293.147 883.793 285.704 879.846C280.403 877.026 276.907 871.67 275.385 864.001L258.582 777.28ZM301.661 861.915C297.601 861.915 294.049 861.126 291.06 859.547C285.76 856.727 282.264 851.427 280.742 843.759L264.897 761.886H179.191C152.069 759.349 133.8 740.911 124.835 707.192C117.387 679.304 117.725 646.967 117.951 625.37L117.955 624.925C118.012 621.598 118.012 618.44 118.012 615.677C118.012 584.722 114.741 571.584 105.494 565.494C102.167 563.295 90.5519 555.175 70.3657 540.177C49.8412 524.896 55.0287 504.033 60.6673 495.124L127.485 400.452C116.997 383.255 113.05 354.498 116.659 321.343C120.606 285.199 133.292 246.462 152.294 212.292C175.977 169.721 209.413 134.029 248.996 109.163C296.248 79.4471 352.239 64.3357 415.391 64.3357C487.622 64.3357 549.421 77.8119 598.984 104.482C640.089 126.586 673.244 157.88 697.547 197.576C738.596 264.675 744.685 339.612 744.685 378.293C744.685 413.703 733.916 454.752 712.714 500.425C700.028 527.659 683.901 555.908 664.786 584.383C662.531 587.766 660.388 590.699 658.302 593.518C648.773 606.543 642.514 615.17 642.514 641.051L637.552 720.217C636.312 740.178 636.142 742.715 616.633 749.594C521.848 782.862 351.732 844.999 323.088 856.84C314.742 860.223 307.581 861.915 301.661 861.915ZM265.292 760.759C265.574 760.759 265.799 760.928 265.856 761.21L281.813 843.533C283.279 850.807 286.549 855.882 291.568 858.532C298.616 862.31 309.047 861.351 322.524 855.769C351.168 843.928 521.341 781.791 616.125 748.523C634.902 741.926 635.015 740.29 636.312 720.161L641.273 640.995C641.273 614.775 647.983 605.584 657.287 592.841C657.599 592.408 657.913 591.972 658.231 591.533L658.233 591.53L658.234 591.528C659.98 589.108 661.807 586.577 663.715 583.763C682.83 555.345 698.9 527.152 711.53 499.974C732.675 454.47 743.388 413.534 743.388 378.349C743.388 339.781 737.299 265.013 696.419 198.196C672.229 158.669 639.244 127.488 598.307 105.497C548.913 78.8833 487.34 65.407 415.279 65.407C258.582 65.407 183.814 157.767 153.197 212.8C134.251 246.857 121.621 285.425 117.674 321.399C114.065 354.498 118.012 383.142 128.5 400.114C128.612 400.283 128.612 400.565 128.5 400.734L61.5131 495.745C56.1 504.315 51.0817 524.501 70.9859 539.275C91.1721 554.273 102.788 562.393 106.058 564.592C115.644 570.963 119.083 584.327 119.083 615.734C119.083 617.051 119.07 618.458 119.057 619.931V619.931V619.932C119.042 621.547 119.027 623.241 119.027 624.981C118.801 646.521 118.463 678.999 125.906 706.91C129.966 722.19 135.999 734.426 143.837 743.223C153.028 753.541 164.925 759.405 179.247 760.759H265.292ZM296.812 838.234C299.687 839.756 303.014 840.489 306.905 840.489C312.6 840.489 319.31 838.854 327.091 835.696C354.213 824.475 515.138 765.665 604.848 734.202C623.286 727.717 623.456 725.293 624.64 706.403L629.376 631.466C629.376 607.107 635.325 598.913 644.256 586.612L644.318 586.527C644.455 586.338 644.592 586.148 644.73 585.958L645.052 585.514C646.751 583.169 648.537 580.707 650.408 577.9C668.508 551.004 683.732 524.22 695.742 498.452C715.816 455.26 725.965 416.41 725.965 382.917C725.965 346.323 720.214 275.389 681.364 211.898C658.415 174.345 627.008 144.743 588.102 123.824C541.188 98.6191 482.716 85.8195 414.376 85.8195C354.664 85.8195 301.661 100.085 256.947 128.222C219.507 151.791 187.874 185.51 165.432 225.826C147.445 258.191 135.435 294.842 131.714 329.012C128.274 360.306 131.996 387.541 141.919 403.836L78.7108 493.433C73.4105 501.891 68.4486 521.683 87.9017 536.118C107.073 550.327 118.068 557.995 121.169 560.082C129.909 565.889 133.01 578.294 133.01 607.559V607.561C133.01 610.154 133.01 613.142 132.954 616.298C132.729 636.71 132.39 667.553 139.495 694.111C148.009 726.026 165.32 743.449 190.975 745.873H272.002L287 823.291C288.467 830.509 291.793 835.527 296.812 838.234ZM273.073 745.14C273.017 744.858 272.791 744.689 272.509 744.689H191.088C177.499 743.449 166.278 737.867 157.595 728.112C150.208 719.823 144.513 708.264 140.623 693.773C133.574 667.384 133.913 636.597 134.138 616.242C134.138 614.596 134.154 613.011 134.168 611.495L134.168 611.491C134.182 610.101 134.195 608.769 134.195 607.502C134.195 577.787 130.924 565.156 121.846 559.123C118.688 557.037 107.75 549.368 88.6347 535.159C69.8582 521.175 74.5946 502.117 79.7257 493.997L143.216 404.062C143.329 403.893 143.329 403.611 143.216 403.441C133.292 387.428 129.515 360.306 132.954 329.012C136.732 294.955 148.629 258.473 166.56 226.22C195.486 174.12 266.25 86.778 414.489 86.778C482.66 86.778 540.906 99.5212 587.65 124.613C626.388 145.419 657.625 174.909 680.462 212.293C719.142 275.558 724.894 346.266 724.894 382.748C724.894 416.072 714.744 454.809 694.727 497.832C682.773 523.544 667.549 550.214 649.506 577.11C647.635 579.917 645.849 582.38 644.15 584.724C643.904 585.064 643.659 585.401 643.416 585.737L643.313 585.88C634.57 597.929 628.248 606.641 628.248 631.354L623.512 706.234C622.328 725.293 622.215 726.815 604.453 733.074C514.743 764.537 353.761 823.348 326.64 834.569C313.897 839.812 304.029 840.715 297.376 837.162C292.695 834.681 289.594 829.888 288.185 823.009L273.073 745.14ZM312.205 819.061C308.54 819.061 305.383 818.328 302.676 816.919C297.94 814.381 294.782 809.645 293.429 802.822L279.276 729.802H202.873C178.683 727.49 162.331 711.082 154.268 680.972C147.558 655.937 147.897 626.842 148.122 607.558C148.178 604.57 148.178 601.751 148.178 599.327V599.325C148.178 571.752 145.246 560.024 137.014 554.611C134.082 552.638 123.707 545.42 105.663 532C87.338 518.355 91.9617 499.691 96.98 491.684L156.58 407.218C147.22 391.881 143.724 366.169 146.938 336.623C150.49 304.37 161.768 269.806 178.74 239.301C206.2 189.963 273.186 107.245 413.531 107.245C478.036 107.245 533.125 119.312 577.388 143.05C614.096 162.785 643.698 190.753 665.35 226.163C701.945 286.045 707.414 352.919 707.414 387.483C707.414 419.059 697.829 455.767 678.883 496.477C667.606 520.78 653.171 546.04 636.142 571.414C634.113 574.403 632.195 577.053 630.391 579.534L630.371 579.562C621.924 591.162 616.295 598.893 616.295 621.936L611.84 692.588L611.834 692.68C610.712 710.47 610.57 712.728 593.12 718.863C508.541 748.522 356.75 804.006 331.151 814.55C323.934 817.539 317.562 819.061 312.205 819.061ZM279.783 728.675C280.065 728.675 280.291 728.844 280.347 729.126L294.613 802.597C295.91 809.081 298.842 813.535 303.296 815.96C309.555 819.287 318.859 818.497 330.869 813.479C356.468 802.878 508.259 747.451 592.894 717.736C609.605 711.884 609.697 710.412 610.818 692.592L610.825 692.475L615.28 621.88C615.28 598.479 621.257 590.247 629.545 578.857C631.406 576.32 633.267 573.726 635.297 570.738C652.325 545.364 666.704 520.216 677.981 495.97C696.87 455.372 706.399 418.89 706.399 387.427C706.399 352.975 700.93 286.327 664.505 226.727C642.965 191.486 613.475 163.687 576.994 144.009C532.9 120.327 477.98 108.316 413.7 108.316C273.919 108.316 207.215 190.696 179.867 239.808C162.952 270.2 151.731 304.596 148.178 336.736C144.964 366.226 148.46 391.825 157.82 406.936C157.933 407.105 157.933 407.387 157.82 407.557L97.995 492.248C93.2022 499.86 88.7477 517.847 106.396 531.042C124.384 544.462 134.759 551.679 137.691 553.596C146.261 559.291 149.306 571.245 149.306 599.269C149.306 600.452 149.293 601.711 149.28 603.03C149.265 604.477 149.25 605.994 149.25 607.558C149.024 626.785 148.742 655.767 155.396 680.69C159.061 694.335 164.418 705.218 171.409 713.056C179.585 722.247 190.186 727.49 202.929 728.675H279.783ZM308.54 795.549C311.077 796.903 314.066 797.579 317.505 797.579C322.524 797.579 328.501 796.17 335.436 793.407C359.513 783.483 502.113 731.382 581.617 703.471C598.001 697.728 598.138 695.584 599.205 678.849L599.209 678.774L603.382 612.352C603.382 590.699 608.626 583.482 616.576 572.543C618.324 570.175 620.072 567.694 621.989 564.875C638.059 541.023 651.592 517.285 662.193 494.449C680.011 456.162 689.032 421.711 689.032 391.995C689.032 359.517 683.901 296.647 649.506 240.373C629.15 207.106 601.352 180.83 566.844 162.279C525.231 139.95 473.469 128.616 412.854 128.616C280.911 128.616 217.928 206.373 192.159 252.722C176.202 281.366 165.601 313.901 162.275 344.18C159.23 371.922 162.5 396.055 171.296 410.49L115.305 489.825C110.569 497.324 106.227 514.86 123.481 527.716C140.397 540.347 150.152 547.113 152.915 548.974C160.583 554.105 163.346 565.1 163.346 590.981C163.346 593.349 163.346 595.943 163.29 598.763C162.895 634.455 162.106 708.715 214.77 713.677H286.493L299.8 782.242C301.097 788.67 304.029 793.181 308.54 795.549ZM287.621 713.057C287.564 712.775 287.339 712.606 287.057 712.606H214.826C192.61 710.463 177.612 695.295 170.169 667.497C163.987 644.441 164.241 617.535 164.411 599.491L164.417 598.819C164.417 597.34 164.433 595.908 164.448 594.547L164.448 594.544C164.461 593.311 164.474 592.136 164.474 591.038C164.474 564.649 161.598 553.428 153.535 548.072C150.716 546.267 141.017 539.445 124.101 526.87C107.524 514.522 111.697 497.663 116.207 490.502L172.424 410.885C172.537 410.715 172.537 410.433 172.424 410.264C163.628 396.111 160.301 372.091 163.346 344.349C166.673 314.183 177.217 281.817 193.118 253.286C218.773 207.162 281.475 129.744 412.798 129.744C473.187 129.744 524.836 141.021 566.224 163.294C600.563 181.732 628.248 207.895 648.491 240.994C682.773 296.985 687.905 359.63 687.905 391.995C687.905 421.485 678.883 455.824 661.178 493.941C650.577 516.721 637.101 540.403 621.087 564.198C619.17 567.017 617.422 569.442 615.674 571.81L615.634 571.866C607.873 582.55 602.254 590.287 602.254 612.239L598.082 678.605L598.076 678.702C597.01 695.47 596.924 696.828 581.222 702.344C501.718 730.198 359.005 782.355 334.985 792.279C323.708 796.959 314.968 797.749 309.104 794.591C304.931 792.335 302.225 788.163 300.984 782.073L287.621 713.057ZM322.806 776.153C319.592 776.153 316.772 775.533 314.404 774.236C310.175 771.981 307.469 767.808 306.228 761.775L293.767 697.664H226.668C177.416 692.992 178.117 623.758 178.456 590.255L178.458 590.079C178.514 587.486 178.514 585.005 178.514 582.806C178.514 558.56 175.977 548.297 168.759 543.505C166.165 541.757 157.031 535.385 141.186 523.6C125.004 511.59 129.12 495.069 133.518 488.077L185.901 413.817C177.668 400.284 174.623 377.73 177.443 351.736C180.544 323.374 190.468 292.982 205.41 266.142C229.543 222.781 288.467 149.987 411.952 149.987C468.676 149.987 517.168 160.588 556.074 181.507C588.384 198.874 614.377 223.458 633.436 254.583C665.632 307.247 670.481 366.058 670.481 396.45C670.481 424.248 662.024 456.501 645.39 492.306C635.466 513.677 622.779 535.893 607.78 558.221C605.976 560.872 604.341 563.183 602.706 565.382C595.263 575.588 590.357 582.355 590.357 602.597L586.466 664.734L586.463 664.792C585.451 680.471 585.32 682.503 569.945 687.909C495.572 714.016 362.107 762.79 339.609 772.037C333.124 774.856 327.542 776.153 322.806 776.153ZM294.274 696.536C294.556 696.536 294.782 696.705 294.838 696.987L307.356 761.549C308.484 767.244 311.077 771.135 314.968 773.221C320.437 776.153 328.613 775.42 339.158 771.078C361.656 761.775 495.178 713.001 569.551 686.894C584.211 681.763 584.324 680.466 585.282 664.734L589.173 602.654C589.173 582.073 594.473 574.799 601.747 564.819C603.382 562.62 605.017 560.308 606.822 557.714C621.82 535.441 634.451 513.282 644.318 491.968C660.896 456.276 669.297 424.192 669.297 396.563C669.297 366.284 664.505 307.699 632.421 255.26C613.475 224.304 587.594 199.832 555.454 182.578C516.717 161.772 468.394 151.228 411.895 151.228C288.974 151.228 230.333 223.627 206.369 266.819C191.483 293.546 181.615 323.769 178.514 352.018C175.695 377.955 178.796 400.453 187.028 413.704C187.141 413.873 187.141 414.155 187.028 414.324L134.42 488.867C130.191 495.577 126.301 511.308 141.807 522.867C157.651 534.652 166.729 541.024 169.323 542.715C176.879 547.734 179.585 558.278 179.585 582.918C179.585 585.117 179.585 587.542 179.529 590.192L179.527 590.406C179.358 607.267 179.102 632.687 184.886 654.472C191.821 680.466 205.861 694.675 226.611 696.649L294.274 696.536ZM320.268 752.978C322.467 754.163 325.118 754.726 328.106 754.726C332.504 754.726 337.748 753.486 343.668 751.061C364.644 742.378 488.919 696.987 558.217 672.685C572.539 667.667 572.708 665.749 573.61 651.089L577.276 593.237C577.276 574.364 581.835 568.1 588.76 558.585L588.778 558.56C590.301 556.53 591.879 554.387 593.515 551.906C607.498 531.1 619.283 510.406 628.53 490.502C644.093 457.121 651.93 427.068 651.93 401.187C651.93 372.881 647.42 318.074 617.422 269.018C599.717 239.979 575.415 217.086 545.361 200.904C509.105 181.394 463.94 171.527 411.106 171.527C296.079 171.527 241.215 239.302 218.717 279.731C204.79 304.71 195.543 333.016 192.667 359.461C190.017 383.594 192.892 404.682 200.561 417.257L151.787 486.386C147.671 492.926 143.837 508.32 158.948 519.541C173.721 530.536 182.179 536.513 184.604 538.092C191.314 542.49 193.682 552.075 193.682 574.63C193.682 575.593 193.669 576.607 193.656 577.672L193.656 577.674L193.656 577.678C193.641 578.855 193.625 580.095 193.625 581.396C193.287 612.521 192.611 677.309 238.565 681.65H301.097L312.656 741.363C313.784 746.945 316.321 750.892 320.268 752.978ZM302.112 680.974C302.056 680.692 301.83 680.523 301.548 680.523L238.621 680.579C219.281 678.775 206.256 665.524 199.772 641.334C194.327 621.017 194.582 597.404 194.751 581.672L194.753 581.452C194.81 578.971 194.81 576.716 194.81 574.686C194.81 551.681 192.272 541.869 185.224 537.189C182.799 535.611 174.341 529.69 159.568 518.695C145.134 507.925 148.742 493.265 152.689 487.062L201.689 417.651C201.801 417.482 201.801 417.2 201.689 417.031C194.02 404.682 191.144 383.763 193.795 359.63C196.67 333.354 205.918 305.161 219.732 280.295C242.117 240.092 296.699 172.654 411.162 172.654C463.771 172.654 508.767 182.465 544.854 201.862C574.738 217.876 598.871 240.656 616.52 269.525C646.405 318.356 650.859 372.937 650.859 401.13C650.859 456.388 614.434 518.864 592.669 551.229C591.034 553.711 589.511 555.797 587.989 557.883C581.166 567.243 576.261 574.009 576.261 593.181L572.595 651.033L572.591 651.103C571.637 665.64 571.559 666.828 557.935 671.614C488.637 695.916 364.306 741.307 343.33 749.99C333.519 754.05 325.963 754.726 320.832 752.02C317.223 750.046 314.855 746.438 313.784 741.137L302.112 680.974ZM333.406 733.299C330.587 733.299 328.162 732.736 326.132 731.664C322.467 729.691 320.099 726.082 319.028 720.838L308.314 665.58H250.462C207.835 661.576 208.455 601.525 208.793 572.656C208.793 571.44 208.809 570.286 208.824 569.194V569.193V569.192V569.19V569.189V569.188C208.837 568.207 208.85 567.277 208.85 566.397C208.85 545.534 206.651 536.682 200.448 532.565C198.193 531.099 190.355 525.574 176.653 515.424C162.669 504.993 166.222 490.727 170.056 484.637L215.221 420.639C208.117 408.967 205.466 389.458 207.947 367.073C210.654 342.601 219.225 316.325 232.081 293.151C252.887 255.71 303.747 192.896 410.373 192.896C459.316 192.896 501.154 202.031 534.76 220.074C562.615 235.073 585.113 256.274 601.578 283.17C629.376 328.617 633.549 379.421 633.549 405.641C633.549 457.065 599.661 515.199 579.418 545.252C578.007 547.394 576.645 549.246 575.331 551.032L575.328 551.036L575.327 551.037L575.02 551.455C568.592 560.251 564.363 566.059 564.363 583.538L560.98 637.161C560.134 650.807 560.021 652.555 546.714 657.178C482.547 679.676 367.35 721.74 347.954 729.803C342.315 732.115 337.466 733.299 333.406 733.299ZM308.822 664.452C309.104 664.452 309.329 664.621 309.386 664.903L320.212 720.613C321.17 725.462 323.369 728.845 326.753 730.649C331.489 733.187 338.481 732.51 347.559 728.789C366.956 720.782 482.152 678.661 546.376 656.163C558.992 651.77 559.063 650.64 559.906 637.151L559.909 637.105L563.292 583.538C563.292 565.798 567.848 559.533 574.152 550.865L574.174 550.834C575.584 548.917 576.993 546.944 578.516 544.688C598.646 514.747 632.421 456.839 632.421 405.697C632.421 379.59 628.305 329.012 600.619 283.847C584.267 257.12 561.938 236.032 534.253 221.146C500.816 203.215 459.147 194.081 410.429 194.081C304.424 194.081 253.846 256.556 233.152 293.771C220.352 316.833 211.782 342.883 209.132 367.242C206.707 389.571 209.357 408.967 216.462 420.414C216.574 420.583 216.574 420.865 216.462 421.034L171.071 485.314C167.462 491.065 164.079 504.598 177.443 514.522C191.088 524.671 198.926 530.197 201.181 531.663C207.722 536.005 210.09 545.083 210.09 566.453C210.09 568.314 210.09 570.457 210.034 572.712C209.865 587.26 209.639 609.307 214.657 628.14C220.634 650.525 232.757 662.761 250.632 664.452H308.822ZM331.996 710.35C333.857 711.365 336.113 711.872 338.706 711.872C342.484 711.872 346.939 710.801 352.014 708.602C369.888 701.215 475.893 662.535 534.986 641.785C547.278 637.443 547.391 635.864 548.18 623.29L551.281 573.952C551.281 557.939 555.172 552.582 561.093 544.462C561.385 544.05 561.684 543.632 561.988 543.206L561.989 543.205C562.975 541.824 564.019 540.361 565.096 538.767C583.703 511.082 614.941 457.572 614.941 410.207C614.941 386.018 611.107 339.274 585.508 297.436C570.34 272.682 549.646 253.173 523.991 239.358C493.035 222.724 454.523 214.323 409.471 214.323C311.359 214.323 264.503 272.175 245.331 306.626C233.49 327.997 225.596 352.13 223.115 374.684C220.86 395.322 223.341 413.252 229.825 424.022L188.325 483.002C184.773 488.584 181.502 501.778 194.415 511.364C206.989 520.724 214.206 525.799 216.293 527.152C221.988 530.873 224.017 539.049 224.017 558.221C224.017 559.022 224.005 559.887 223.991 560.797V560.798C223.977 561.809 223.961 562.875 223.961 563.972L223.96 564.04C223.678 590.624 223.092 645.791 262.36 649.51H315.588L325.456 700.37C326.414 705.219 328.613 708.546 331.996 710.35ZM316.603 648.833C316.547 648.551 316.321 648.382 316.039 648.382L262.473 648.325C224.276 644.72 224.862 590.23 225.144 563.984L225.145 563.916C225.201 561.829 225.202 559.912 225.202 558.164C225.202 538.542 223.002 530.14 216.969 526.137C214.883 524.727 207.665 519.709 195.091 510.349C182.799 501.214 185.9 488.809 189.227 483.509L231.009 424.304C231.122 424.135 231.122 423.853 231.009 423.684C224.525 413.196 222.044 395.378 224.299 374.797C226.78 352.412 234.618 328.391 246.403 307.19C265.461 272.908 311.979 215.45 409.527 215.45C454.41 215.45 492.753 223.852 523.483 240.373C548.97 254.075 569.494 273.472 584.549 298.056C610.036 339.669 613.813 386.187 613.813 410.207C613.813 457.29 582.745 510.574 564.194 538.147C562.784 540.234 561.487 542.038 560.19 543.786C554.326 551.736 550.154 557.488 550.154 573.896L547.053 623.234C546.32 635.639 546.207 636.654 534.648 640.713C475.555 661.463 369.493 700.2 351.619 707.587C343.274 711.083 336.846 711.647 332.504 709.335C329.459 707.7 327.429 704.599 326.527 700.144L316.603 648.833ZM344.007 690.445C341.639 690.445 339.609 689.994 337.861 689.035C334.759 687.4 332.73 684.299 331.827 679.901L322.806 633.495H274.201C238.227 630.112 238.791 579.59 239.072 555.288C239.072 554.283 239.088 553.324 239.103 552.412C239.116 551.584 239.129 550.795 239.129 550.044C239.129 532.733 237.212 525.065 232.137 521.682C230.276 520.441 223.623 515.818 212.12 507.247C200.279 498.451 203.267 486.384 206.538 481.253L244.486 427.461C232.814 408.12 234.956 362.955 258.695 320.215C276.231 288.695 319.028 235.861 408.681 235.861C449.843 235.861 485.084 243.586 513.334 258.754C536.79 271.328 555.68 289.203 569.551 311.87C592.951 350.099 596.447 392.84 596.447 414.887C596.447 458.135 567.915 507.078 550.943 532.395C549.646 534.312 548.462 536.004 547.278 537.583L547.201 537.688C541.887 545.016 538.313 549.945 538.313 564.535L535.493 609.644C534.76 621.147 534.648 622.613 523.427 626.56C469.466 645.505 372.594 680.859 356.299 687.626C351.506 689.43 347.446 690.445 344.007 690.445ZM323.313 632.367C323.595 632.367 323.821 632.537 323.877 632.819L332.955 679.675C333.801 683.735 335.605 686.554 338.368 688.02C342.315 690.107 348.179 689.599 355.791 686.442C372.143 679.675 469.014 644.321 522.976 625.376C533.518 621.655 533.576 620.752 534.309 609.425L534.309 609.418L537.129 564.366C537.129 549.426 540.933 544.164 546.201 536.879L546.263 536.793C547.447 535.214 548.631 533.523 549.928 531.606C566.844 506.401 595.263 457.74 595.263 414.774C595.263 392.84 591.767 350.325 568.536 312.321C554.777 289.879 536.057 272.118 512.77 259.656C484.69 244.545 449.674 236.933 408.681 236.933C319.592 236.933 277.077 289.428 259.653 320.722C248.884 340.063 241.723 361.997 239.467 382.465C237.437 401.241 239.636 417.537 245.613 427.123C245.726 427.292 245.726 427.574 245.613 427.743L207.44 481.817C204.395 486.61 201.576 497.943 212.74 506.288C224.243 514.859 230.84 519.426 232.701 520.667C238.227 524.332 240.2 532 240.2 549.988C240.2 551.566 240.2 553.314 240.144 555.288C239.862 579.252 239.354 629.097 274.201 632.367H323.313ZM343.725 667.722C345.304 668.568 347.164 668.963 349.307 668.963C352.408 668.963 356.13 668.117 360.528 666.312C375.301 660.166 462.981 628.139 511.868 610.998C522.098 607.4 522.186 606.044 522.857 595.702L522.863 595.605L525.457 554.781C525.457 541.579 528.647 537.165 533.466 530.496L533.52 530.422C534.591 528.956 535.663 527.434 536.847 525.686C552.24 502.793 578.065 458.474 578.065 419.286C578.065 399.325 574.907 360.588 553.706 325.967C541.188 305.442 524.047 289.26 502.79 277.87C477.19 264.111 445.276 257.12 408.005 257.12C326.753 257.12 288.016 304.991 272.115 333.523C250.575 372.203 248.658 413.14 259.202 430.676L224.863 479.337C221.931 484.017 219.168 494.956 229.938 502.962C240.313 510.744 246.346 514.916 248.038 516.044C252.662 519.089 254.353 526.081 254.353 541.7C254.353 542.4 254.34 543.127 254.327 543.885C254.312 544.714 254.297 545.58 254.297 546.492L254.296 546.569C254.07 568.589 253.601 614.272 286.155 617.37H330.136L338.255 659.377C339.045 663.437 340.906 666.2 343.725 667.722ZM331.094 616.749C331.038 616.467 330.812 616.298 330.531 616.298L286.211 616.242C254.729 613.257 255.198 568.252 255.424 546.57L255.424 546.492C255.481 544.744 255.481 543.109 255.481 541.7C255.481 525.46 253.676 518.469 248.658 515.142C246.91 514.014 240.933 509.841 230.558 502.117C220.522 494.617 223.059 484.411 225.765 480.07L260.33 431.127C260.443 430.958 260.443 430.676 260.33 430.506C254.973 421.823 252.943 407.05 254.804 390.078C256.834 371.583 263.318 351.735 273.073 334.199C288.805 305.893 327.317 258.36 407.948 258.36C445.05 258.36 476.739 265.296 502.169 278.941C523.201 290.275 540.23 306.345 552.635 326.643C573.667 361.039 576.824 399.551 576.824 419.398C576.824 458.305 551.112 502.399 535.775 525.178C534.592 526.926 533.521 528.391 532.45 529.857L532.449 529.859L532.428 529.887C527.646 536.469 524.16 541.268 524.16 554.837L521.566 595.661C520.946 605.867 520.89 606.713 511.36 610.039C462.474 627.181 374.737 659.264 359.964 665.354C353.085 668.173 347.785 668.681 344.232 666.764C341.695 665.41 340.06 662.873 339.327 659.208L331.094 616.749ZM354.607 647.535C352.69 647.535 350.999 647.14 349.533 646.407C346.995 645.054 345.36 642.517 344.627 638.908L337.353 601.355H298.052C268.788 598.592 269.239 557.543 269.465 537.808C269.465 536.98 269.48 536.198 269.495 535.455C269.508 534.781 269.521 534.139 269.521 533.523C269.521 519.539 267.999 513.337 263.882 510.63C262.36 509.615 257.003 505.837 247.643 498.902C238.001 491.741 240.426 481.873 243.076 477.701L273.806 434.114C264.39 418.383 266.081 381.732 285.365 347.111C299.575 321.512 334.308 278.658 407.103 278.658C440.54 278.658 469.071 284.917 492.02 297.209C511.078 307.415 526.415 321.963 537.636 340.288C556.638 371.3 559.457 405.978 559.457 423.908C559.457 459.037 536.339 498.733 522.525 519.257C521.453 520.836 520.495 522.189 519.536 523.486L519.523 523.504C515.189 529.471 512.319 533.422 512.319 545.251L510.007 581.846C509.443 591.262 509.33 592.446 500.139 595.66C456.384 610.997 377.838 639.698 364.588 645.167C360.697 646.746 357.37 647.535 354.607 647.535ZM337.804 600.227C338.086 600.227 338.312 600.397 338.368 600.678L345.755 638.683C346.431 641.953 347.897 644.208 350.096 645.393C353.254 647.084 357.99 646.633 364.137 644.096C377.387 638.626 455.933 609.926 499.745 594.532C508.221 591.557 508.259 590.985 508.871 581.801L508.879 581.676L511.191 545.138C511.191 532.959 514.292 528.674 518.634 522.753C519.593 521.456 520.551 520.103 521.622 518.581C535.324 498.169 558.386 458.699 558.386 423.852C558.386 406.091 555.567 371.639 536.734 340.852C525.626 322.639 510.402 308.317 491.569 298.168C468.789 285.932 440.427 279.73 407.215 279.73C335.041 279.73 300.59 322.245 286.437 347.618C277.697 363.294 271.889 381.112 270.085 397.633C268.393 412.857 270.254 425.995 275.047 433.776C275.16 433.945 275.16 434.227 275.047 434.396L244.091 478.265C241.666 482.155 239.411 491.233 248.376 497.943C257.68 504.879 263.037 508.6 264.559 509.615C269.07 512.604 270.705 518.862 270.705 533.466C270.705 534.763 270.705 536.173 270.649 537.752C270.423 557.148 269.972 597.464 298.165 600.171L337.804 600.227ZM355.397 625.094C356.694 625.771 358.16 626.109 359.908 626.109C362.388 626.109 365.321 625.433 368.647 624.023C380.376 619.174 449.73 593.857 488.411 580.268C496.531 577.392 496.643 576.321 497.151 567.975L499.181 535.666C499.181 525.235 501.718 521.739 505.552 516.495C506.398 515.367 507.3 514.127 508.203 512.774C520.382 494.674 540.85 459.602 540.85 428.533C540.85 412.689 538.369 382.071 521.566 354.611C511.642 338.372 498.053 325.516 481.25 316.494C460.951 305.612 435.747 300.086 406.2 300.086C341.92 300.086 311.19 337.977 298.616 360.588C281.644 391.205 280.121 423.571 288.41 437.498L261.288 475.954C258.977 479.675 256.778 488.415 265.348 494.786C273.581 500.933 278.317 504.259 279.67 505.161C283.279 507.53 284.632 512.999 284.632 525.348C284.632 525.886 284.619 526.463 284.606 527.066C284.591 527.726 284.576 528.418 284.576 529.125C284.35 546.605 283.956 582.918 309.893 585.342H344.571L350.999 618.441C351.675 621.655 353.141 623.91 355.397 625.094ZM345.642 584.666C345.585 584.384 345.36 584.215 345.078 584.215H309.95C285.181 581.907 285.533 546.386 285.703 529.268L285.704 529.182C285.76 527.829 285.76 526.533 285.76 525.406V525.404C285.76 512.435 284.294 506.909 280.291 504.259C278.937 503.357 274.201 500.087 265.969 493.941C258.074 488.077 260.048 480.013 262.191 476.63L289.594 437.837C289.707 437.667 289.707 437.386 289.594 437.216C285.309 430.337 283.73 418.722 285.196 405.302C286.775 390.642 291.906 374.966 299.631 361.095C312.092 338.71 342.484 301.157 406.257 301.157C435.577 301.157 460.669 306.627 480.743 317.453C497.433 326.362 510.853 339.048 520.664 355.118C537.298 382.296 539.779 412.689 539.779 428.42C539.779 459.151 519.48 493.997 507.357 512.041C506.455 513.45 505.609 514.634 504.763 515.762L504.719 515.823C500.908 521.091 498.166 524.881 498.166 535.61L496.136 567.919C495.629 576.095 495.572 576.602 488.129 579.196C449.448 592.785 380.037 618.103 368.309 622.952C362.896 625.207 358.723 625.546 355.96 624.079C353.987 623.065 352.69 621.091 352.126 618.215L345.642 584.666ZM365.208 604.684C363.685 604.684 362.388 604.402 361.261 603.781C359.287 602.71 357.99 600.737 357.426 597.974L351.844 569.273H321.791C299.236 567.131 299.574 535.611 299.744 520.443V517.173C299.744 506.516 298.56 501.779 295.458 499.693C294.274 498.904 290.158 496.028 282.997 490.728C275.498 485.145 277.415 477.533 279.445 474.263L302.958 440.939C295.74 428.816 297.093 400.679 311.867 374.178C322.805 354.556 349.476 321.626 405.355 321.626C431.01 321.626 452.944 326.419 470.537 335.892C485.141 343.729 496.925 354.894 505.552 368.99C520.1 392.842 522.299 419.456 522.299 433.158C522.299 460.11 504.537 490.558 493.937 506.346C493.274 507.341 492.61 508.257 491.981 509.126L491.96 509.154L491.735 509.465L491.625 509.617L491.592 509.663C488.284 514.204 486.099 517.203 486.099 526.251L484.351 554.331C483.9 561.717 483.618 562.62 476.683 565.044C443.133 576.829 382.913 598.819 372.763 602.992C369.944 604.063 367.35 604.684 365.208 604.684ZM352.295 568.146C352.577 568.146 352.803 568.315 352.859 568.597L358.498 597.748C359.005 600.229 360.077 601.921 361.768 602.823C364.136 604.12 367.745 603.781 372.425 601.808C382.575 597.579 442.851 575.588 476.401 563.804C482.803 561.557 482.829 561.157 483.275 554.19L483.28 554.105L485.028 526.082C485.028 516.723 487.451 513.396 490.777 508.83L490.779 508.827L490.78 508.827C491.512 507.812 492.245 506.797 493.035 505.613C503.522 489.995 521.171 459.715 521.171 433.045C521.171 419.399 519.029 393.011 504.594 369.441C485.592 338.373 452.211 322.641 405.355 322.641C350.04 322.641 323.651 355.232 312.882 374.629C298.165 401.074 296.868 428.929 304.142 440.6C304.255 440.77 304.255 441.052 304.142 441.221L280.403 474.827C278.543 477.759 276.851 484.694 283.674 489.769C290.835 495.069 294.894 497.945 296.079 498.734C299.574 501.046 300.871 505.895 300.871 517.116V520.387C300.702 535.216 300.364 566.059 321.847 568.089L352.295 568.146ZM367.125 582.467C368.083 582.974 369.211 583.256 370.508 583.256C372.312 583.256 374.511 582.749 376.936 581.734C385.563 578.182 436.592 559.518 465.067 549.538C470.988 547.451 471.213 546.662 471.608 540.347L473.13 516.552C473.13 508.94 474.991 506.346 477.811 502.512C477.905 502.383 478.001 502.253 478.097 502.122C478.637 501.389 479.21 500.609 479.784 499.749C488.806 486.385 503.861 460.561 503.861 437.668C503.861 425.996 502 403.442 489.652 383.199C473.356 356.528 444.768 342.996 404.622 342.996C357.201 342.996 334.534 370.963 325.287 387.654C312.769 410.152 311.641 434.003 317.731 444.321L297.827 472.571C296.022 475.334 294.443 481.874 300.815 486.611C306.848 491.122 310.344 493.546 311.359 494.223C313.953 495.915 314.912 499.918 314.912 508.94V511.703C314.742 524.559 314.46 551.398 333.688 553.203H359.118L363.798 577.449C364.306 579.873 365.433 581.565 367.125 582.467ZM360.133 552.526C360.077 552.244 359.851 552.075 359.569 552.075H333.801C315.748 550.388 315.982 524.413 316.095 511.802L316.096 511.703V508.94C316.096 499.354 315.081 495.238 312.036 493.264C311.973 493.22 311.898 493.167 311.812 493.107L311.669 493.007C310.348 492.078 306.974 489.709 301.548 485.652C295.797 481.423 297.263 475.616 298.785 473.135L318.915 444.603C319.028 444.434 319.028 444.152 318.915 443.983C312.769 434.116 313.84 410.546 326.301 388.161C335.492 371.696 357.821 344.124 404.678 344.124C444.374 344.124 472.679 357.431 488.749 383.763C500.985 403.78 502.79 426.109 502.79 437.668C502.79 460.222 487.847 485.878 478.938 499.129C478.262 500.144 477.641 500.989 477.021 501.835C474.145 505.726 472.116 508.545 472.116 516.495L470.593 540.234L470.588 540.309C470.198 546.157 470.175 546.501 464.785 548.41C436.31 558.39 385.225 577.054 376.598 580.606C372.651 582.241 369.662 582.523 367.632 581.452C366.279 580.719 365.321 579.309 364.926 577.223L360.133 552.526ZM375.809 561.829C374.737 561.829 373.779 561.604 372.989 561.209C371.58 560.42 370.621 559.066 370.226 557.036L366.392 537.189H345.642C329.788 535.671 330.022 513.749 330.135 503.113L330.136 503.019V500.763C330.136 493.377 329.346 490.163 327.26 488.753C327.116 488.65 326.903 488.501 326.621 488.302C325.352 487.412 322.681 485.538 318.577 482.494C313.276 478.547 314.63 473.134 316.096 470.822L332.391 447.704C327.429 439.19 328.388 419.624 338.65 401.129C346.206 387.371 364.813 364.422 403.776 364.422C436.762 364.422 460.275 375.53 473.638 397.464C483.788 414.098 485.31 432.649 485.31 442.235C485.31 461.068 472.905 482.269 465.575 493.264C465.011 494.11 464.504 494.843 463.996 495.519C461.684 498.677 460.162 500.763 460.162 506.966L458.921 526.532C458.583 531.776 458.414 532.396 453.508 534.144C430.165 542.32 388.27 557.657 381.165 560.589C379.135 561.378 377.331 561.829 375.809 561.829ZM366.843 536.061C367.125 536.061 367.351 536.23 367.407 536.512L371.354 556.811C371.692 558.446 372.425 559.63 373.553 560.194C375.188 561.04 377.613 560.814 380.827 559.517C387.875 556.585 429.826 541.248 453.226 533.072C457.568 531.55 457.625 531.324 457.906 526.475L459.147 506.966C459.147 500.425 460.839 498.057 463.15 494.843C463.658 494.166 464.165 493.433 464.729 492.587C472.059 481.705 484.295 460.729 484.295 442.178C484.295 432.705 482.773 414.38 472.792 398.028C459.598 376.489 436.423 365.55 403.889 365.55C365.49 365.55 347.164 388.161 339.665 401.637C329.459 419.962 328.557 439.303 333.575 447.366C333.688 447.535 333.688 447.817 333.575 447.986L316.942 471.386C315.701 473.36 314.517 478.096 319.197 481.536C324.159 485.257 327.035 487.231 327.824 487.738C330.361 489.373 331.207 492.813 331.207 500.707V503.019C331.094 513.281 330.869 534.651 345.642 536.061H366.843ZM378.797 539.896C379.417 540.234 380.207 540.403 381.052 540.403C382.293 540.403 383.702 540.065 385.45 539.332C390.92 537.076 423.68 525.123 441.949 518.695C445.84 517.341 446.009 516.777 446.291 512.661L447.249 497.381C447.249 492.531 448.377 490.896 450.182 488.472C450.576 487.964 450.971 487.4 451.422 486.724C457.173 478.097 466.872 461.463 466.872 446.746C466.872 439.247 465.688 424.699 457.737 411.674C447.193 394.476 428.811 385.793 402.986 385.793C372.425 385.793 357.878 403.836 351.901 414.55C343.894 428.928 343.161 444.209 346.995 450.975L334.308 469.018C333.124 470.879 332.053 475.165 336.282 478.322C339.315 480.608 341.354 482.037 342.399 482.769L342.402 482.771C342.696 482.978 342.912 483.129 343.048 483.228C344.627 484.299 345.247 486.836 345.247 492.531V494.336C345.134 502.681 344.965 519.991 357.483 521.176H373.609L376.598 536.569C376.88 538.148 377.669 539.275 378.797 539.896ZM374.624 520.443C374.568 520.161 374.342 519.991 374.06 519.991H357.596C346.149 518.92 346.319 502.286 346.431 494.279V492.475C346.431 486.273 345.755 483.566 343.725 482.269C343.105 481.875 340.906 480.296 337.015 477.42C333.406 474.77 334.308 471.161 335.267 469.639L348.179 451.37C348.292 451.201 348.292 450.919 348.179 450.749C343.274 442.855 346.826 426.109 352.916 415.114C358.724 404.626 373.046 386.977 402.986 386.977C428.417 386.977 446.516 395.491 456.779 412.294C464.56 425.037 465.744 439.359 465.744 446.746C465.744 461.181 456.158 477.589 450.463 486.047C450.184 486.466 449.927 486.82 449.677 487.163C449.524 487.374 449.373 487.58 449.223 487.795L449.124 487.935C447.369 490.4 446.065 492.232 446.065 497.324L445.107 512.548L445.106 512.563C444.825 516.383 444.821 516.441 441.498 517.623C423.285 524.051 390.469 536.005 384.943 538.317C382.462 539.332 380.601 539.557 379.361 538.881C378.515 538.43 378.008 537.527 377.726 536.287L374.624 520.443ZM386.353 518.919C385.732 518.919 385.112 518.807 384.661 518.525C383.815 518.074 383.195 517.228 382.97 515.987L380.827 504.992H369.324C360.133 504.146 360.246 491.516 360.359 485.483V484.186C360.359 480.126 359.964 478.378 358.836 477.645C358.385 477.363 356.75 476.179 353.931 474.093C350.773 471.781 351.619 468.567 352.465 467.213L361.599 454.301C358.836 449.339 359.4 438.344 365.208 427.969C369.55 420.188 380.094 407.162 402.141 407.162C420.804 407.162 434.112 413.478 441.724 425.883C447.475 435.299 448.321 445.787 448.321 451.2C448.321 461.857 441.329 473.867 437.156 480.069C436.954 480.339 436.773 480.608 436.599 480.865L436.503 481.007L436.439 481.101C436.377 481.192 436.316 481.28 436.254 481.366L436.187 481.46C434.983 483.156 434.168 484.304 434.168 487.682L433.491 498.677C433.322 501.609 433.209 502.173 430.277 503.188C417.139 507.811 393.514 516.438 389.567 518.074C388.326 518.694 387.255 518.919 386.353 518.919ZM381.334 503.921C381.616 503.921 381.842 504.09 381.898 504.372L384.097 515.818C384.266 516.664 384.661 517.284 385.225 517.566C386.071 518.017 387.424 517.848 389.116 517.171C393.119 515.536 416.745 506.909 429.883 502.286C432.194 501.496 432.194 501.496 432.364 498.79L433.04 487.794C433.04 484.037 433.988 482.734 435.33 480.89L435.352 480.859C435.634 480.464 435.916 480.069 436.254 479.618C440.37 473.529 447.249 461.744 447.249 451.369C447.249 446.069 446.404 435.806 440.821 426.616C433.435 414.549 420.466 408.403 402.197 408.403C380.714 408.403 370.452 421.09 366.223 428.589C361.825 436.483 359.287 448.437 362.783 454.076C362.896 454.245 362.896 454.527 362.783 454.696L353.48 467.89C352.803 468.905 352.239 471.442 354.664 473.247C357.483 475.333 359.062 476.461 359.513 476.743C361.035 477.758 361.543 479.675 361.543 484.242V485.539C361.486 491.234 361.374 503.131 369.437 503.921H381.334ZM390.525 497.213C390.863 497.382 391.202 497.495 391.653 497.495C392.273 497.495 392.95 497.326 393.626 496.987C396.051 496.029 410.486 490.728 418.549 487.909C420.466 487.233 420.579 486.838 420.692 484.977L421.143 478.211C421.143 476.181 421.594 475.561 422.383 474.489L422.414 474.449L422.487 474.353L422.487 474.352C422.638 474.154 422.811 473.927 422.947 473.7C425.541 469.866 429.826 462.479 429.826 455.882C429.826 452.555 429.319 446.071 425.766 440.263C421.086 432.595 412.854 428.704 401.351 428.704C387.762 428.704 381.221 436.767 378.571 441.56C375.075 447.875 374.681 454.585 376.316 457.743L370.79 465.524C370.226 466.426 369.719 468.512 371.749 470.035C373.44 471.275 374.455 472.008 374.737 472.178C375.357 472.572 375.583 473.644 375.583 476.012V476.801C375.526 480.579 375.414 488.417 381.278 488.981H388.157L389.397 495.521C389.567 496.536 390.13 496.987 390.525 497.213ZM389.172 488.36C389.116 488.078 388.89 487.909 388.608 487.909L381.447 487.796C376.711 487.345 376.767 480.241 376.823 476.801V476.012C376.823 473.531 376.598 471.952 375.47 471.219C375.372 471.145 375.125 470.965 374.738 470.683C374.234 470.317 373.494 469.777 372.538 469.076C371.01 467.905 371.69 466.458 371.836 466.147L371.842 466.134L371.852 466.113L371.856 466.105L371.858 466.099C371.859 466.095 371.86 466.093 371.861 466.091C371.861 466.09 371.861 466.089 371.861 466.088L377.556 458.025C377.669 457.855 377.669 457.574 377.556 457.404C375.921 454.754 376.26 448.157 379.643 442.011C382.18 437.444 388.439 429.775 401.464 429.775C412.572 429.775 420.466 433.497 424.921 440.827C428.304 446.409 428.811 452.668 428.811 455.882C428.811 462.197 424.582 469.358 422.101 473.08C421.876 473.362 421.707 473.587 421.537 473.813C420.692 474.884 420.071 475.786 420.071 478.154L419.62 484.864C419.591 485.656 419.577 486.036 419.388 486.281C419.214 486.509 418.89 486.621 418.267 486.838C410.204 489.657 395.713 494.957 393.288 495.972C392.273 496.423 391.54 496.48 391.089 496.254C390.807 496.142 390.638 495.803 390.525 495.352L389.172 488.36ZM396.389 475.953C396.559 476.01 396.728 476.066 396.953 476.066C397.235 476.066 397.517 476.01 397.799 475.897C398.701 475.559 404.001 473.585 406.934 472.57C407.779 472.232 407.892 471.95 407.948 471.161L408.118 468.68C408.118 468.003 408.23 467.834 408.512 467.496C408.569 467.439 408.681 467.326 408.738 467.214C409.922 465.466 411.332 462.872 411.332 460.504C411.332 458.079 410.542 450.185 400.505 450.185C395.318 450.185 392.837 453.286 391.822 455.091C390.638 457.233 390.243 459.714 390.864 461.18L388.946 463.887C388.664 464.394 388.495 465.353 389.397 466.03C389.514 466.107 389.621 466.18 389.718 466.248C389.94 466.401 390.112 466.528 390.241 466.623C390.385 466.727 390.476 466.794 390.525 466.819C390.582 466.875 390.694 466.988 390.694 467.947V468.229C390.694 469.582 390.694 472.796 393.175 473.021H395.374L395.769 475.108C395.882 475.615 396.164 475.841 396.389 475.953ZM397.404 474.826C397.066 474.939 396.897 474.939 396.897 474.939V474.713L396.389 472.176C396.333 471.894 396.107 471.725 395.825 471.725H393.175C391.935 471.612 391.822 469.92 391.822 468.059V467.777C391.822 466.763 391.709 466.086 391.145 465.748C391.119 465.721 391.031 465.658 390.876 465.546C390.699 465.419 390.434 465.228 390.074 464.958C389.792 464.723 389.863 464.488 389.894 464.384L389.894 464.384C389.9 464.363 389.905 464.347 389.905 464.338L391.991 461.406C392.104 461.237 392.104 460.955 391.991 460.786C391.54 459.996 391.54 457.741 392.781 455.485C393.683 453.907 395.825 451.2 400.449 451.2C409.189 451.2 410.148 457.628 410.148 460.391C410.148 462.59 408.681 465.127 407.779 466.481C407.723 466.593 407.667 466.706 407.61 466.763C407.272 467.214 406.99 467.608 406.99 468.567L406.821 471.048V471.386C406.821 471.443 406.708 471.443 406.595 471.499C403.607 472.514 398.306 474.431 397.404 474.826Z" fill="url(#paint0_radial_1618_20373)" fill-opacity="0.3"/>
<defs>
<radialGradient id="paint0_radial_1618_20373" cx="0" cy="0" r="1" gradientUnits="userSpaceOnUse" gradientTransform="translate(400 463.098) rotate(90) scale(305.068 305.068)">
<stop stop-color="#020617"/>
<stop offset="1" stop-color="#020617" stop-opacity="0"/>
</radialGradient>
</defs>
</svg>
